<?xml version="1.0" encoding="utf-8"?>
<!-- Generator: Adobe Illustrator 19.2.1, SVG Export Plug-In . SVG Version: 6.00 Build 0)  -->
<svg version="1.1" id="layer" xmlns="http://www.w3.org/2000/svg" xmlns:xlink="http://www.w3.org/1999/xlink" x="0px" y="0px"
	 viewBox="0 0 652 652" style="enable-background:new 0 0 652 652;" xml:space="preserve">
<style type="text/css">
	.st0{fill:#00B3E2;}
	.st1{fill:none;stroke:#00B3E2;stroke-width:0.2;}
	.st2{fill:#C7D31D;}
	.st3{fill:none;stroke:#C7D31D;stroke-width:0.2;}
	.st4{fill:#1C1C1B;}
	.st5{fill:#FFFFFF;}
	.st6{fill:none;stroke:#000000;stroke-width:0.1;}
</style>
<g>
	<path class="st0" d="M467.3,289.8c0-100.4-81.7-182.1-182.1-182.1c-35.9,0-69.2,10.5-97.4,28.5c-7,13.8-13.1,32-13.1,51.4
		c0,1.6,0,3.2,0.1,4.8c1.8,34.9,24.2,62.3,64.7,79.4c20.7,8.7,41.9,15.6,62.3,22.2C367.8,315.4,425,334,425,404.2c0,0.7,0,1.4,0,2.2
		C451.4,374.7,467.3,334.1,467.3,289.8"/>
	<path class="st1" d="M467.3,289.8c0-100.4-81.7-182.1-182.1-182.1c-35.9,0-69.2,10.5-97.4,28.5c-7,13.8-13.1,32-13.1,51.4
		c0,1.6,0,3.2,0.1,4.8c1.8,34.9,24.2,62.3,64.7,79.4c20.7,8.7,41.9,15.6,62.3,22.2C367.8,315.4,425,334,425,404.2c0,0.7,0,1.4,0,2.2
		C451.4,374.7,467.3,334.1,467.3,289.8z"/>
	<path class="st2" d="M103,289.8c0-48.4,19.1-92.4,50.1-125.1c-3.9,10.1-9.5,28.2-9.5,49.5c0,24.4,7.2,53.1,32.2,79.4l4.6,4.8
		c35.6,37.5,67.5,71.1,67.5,115.9c0,15.3-3.7,32-12.4,50.5C159.2,443.2,103,373,103,289.8"/>
	<path class="st3" d="M103,289.8c0-48.4,19.1-92.4,50.1-125.1c-3.9,10.1-9.5,28.2-9.5,49.5c0,24.4,7.2,53.1,32.2,79.4l4.6,4.8
		c35.6,37.5,67.5,71.1,67.5,115.9c0,15.3-3.7,32-12.4,50.5C159.2,443.2,103,373,103,289.8z"/>
	<path class="st4" d="M285.2,112.7c97.7,0,177.2,79.5,177.2,177.2c0,36.9-11.4,72.3-32.8,102.2c-6.5-64.3-64.9-82.9-126.3-102.8
		c-20.3-6.5-41.3-13.4-61.8-22.1c-38.7-16.3-59.9-42.2-61.6-75.1l-0.1-4.5c0-19.5,6.4-36.6,12-47.9
		C219.9,122.1,252.2,112.7,285.2,112.7"/>
	<path class="st4" d="M108,289.8c0-37,12-73.1,33.4-102.9c-1.6,8-2.7,17.7-2.7,27.4c0,31.5,11.3,59.4,33.6,82.9l4.5,4.8
		c35.6,37.4,66.2,69.7,66.2,112.5c0,14-3.7,28.5-10.4,44.1C159.1,435.5,108,367,108,289.8"/>
	<path class="st2" d="M111.5,289.8c0-30.5,8.8-62.5,24.9-89.3c-0.3,3.8-1.2,10-1.2,13.7c0,32.4,11.6,61.1,34.5,85.3l4.6,4.8
		c35,36.8,65.2,68.7,65.2,110.1c0,12-3.1,25.1-9,39.5C160.3,430.4,111.5,363.6,111.5,289.8"/>
	<path class="st4" d="M71.9,576.5h426.7v-500H71.9V576.5z M103,289.8c0-45.7,17-87.5,45-119.5c1.6-1.9-1.8,1.8,0,0
		c-1.2,9-4.3,22.5-4.3,43.9c0,24.4,7.2,53.1,32.1,79.4l4.6,4.8C216,336,248,369.7,248,414.5c0,15.3-3.8,32-12.4,50.5
		C159.2,443.2,103,373.1,103,289.8 M426.1,403.3c-3.3-73.2-62.2-88.9-124.4-109.3c-20.4-6.7-41.6-13.5-62.3-22.2
		c-40.5-17.1-62.8-44.6-64.7-79.4c0-1.6-0.1-3.2-0.1-4.8c0-19.4,6.1-37.6,13.1-51.4c28.2-17.9,61.6-28.5,97.4-28.5
		c100.4,0,182.1,81.7,182.1,182.2C467.3,333.9,453.1,372.8,426.1,403.3"/>
	<path class="st0" d="M285.2,116.2c-31.9,0-63.3,9-90.9,26.1c-5.2,10.7-11.2,26.9-11.2,45.3l0.1,4.4c1.6,31.4,22.2,56.3,59.5,72.1
		c20.5,8.6,41.4,15.4,61.6,21.9l1.1,0.4c59.1,19.1,116.5,38.2,126.2,96.4c17.9-27.9,27.2-59.7,27.2-92.9
		C458.9,194,380.9,116.2,285.2,116.2 M371.7,231.5c-1.3,12.2-7.4,23.3-17.3,31.3c-11,8.9-25.9,13.1-40.8,11.5
		c-14.7-1.6-28.2-8.8-37.2-19.9c-7.9-9.9-11.6-22.1-10.3-34.3c1.3-12.3,7.6-23.6,17.6-31.7c11-8.9,25.8-13.1,40.4-11.5
		c14.7,1.6,28.2,8.8,37.1,19.9C369.3,206.8,373.1,219.2,371.7,231.5"/>
	<path class="st0" d="M367.7,231.1c-1.2,11.1-6.8,21.3-15.9,28.7c-10.2,8.2-24,12-37.8,10.6c-13.6-1.5-26.2-8.2-34.5-18.4
		c-7.3-9.1-10.7-20.2-9.5-31.4c1.2-11.3,6.9-21.6,16.2-29c10.2-8.2,23.9-12.1,37.5-10.6c13.6,1.4,26.1,8.1,34.4,18.4
		C365.5,208.5,369,219.8,367.7,231.1"/>
	<path class="st4" d="M323.3,185.4c-24.5-2.6-46.3,13.4-48.7,35.7c-2.4,22.1,15.5,42.2,40,44.8c12.6,1.3,25.2-2.1,34.5-9.6
		c8.1-6.5,13.2-15.6,14.2-25.6C365.7,208.3,347.7,188,323.3,185.4"/>
	<polygon class="st5" points="101.5,493.4 132.6,493.4 132.6,500.5 110.8,500.5 110.8,516.4 131.4,516.4 131.4,523.5 110.8,523.5 
		110.8,548.5 101.5,548.5 	"/>
	<path class="st5" d="M150.6,493.4h11.2l18.8,55.1h-9.7l-4.8-14.9h-19.8l-4.8,14.9h-9.7L150.6,493.4z M148.5,526.5h15.3l-7.6-24.2
		h-0.1L148.5,526.5z"/>
	<rect x="188" y="493.4" class="st5" width="9.3" height="55.1"/>
	<path class="st5" d="M210.5,493.4h16.7c10.4,0,17.7,3.6,17.7,14.4c0,8.7-5.2,11.4-10.9,12.8v0.2c7.6,1.7,8.5,6.4,9.8,12.2l3.3,15.5
		h-9.5l-2.6-11.9c-1.9-8.8-3-11.7-11.5-11.7h-3.7v23.6h-9.3V493.4z M219.8,518.2h3.7c5.8,0,11.9-1.2,11.9-9.3c0-5.7-2.9-8.9-8.2-8.9
		h-7.3V518.2z"/>
	<polygon class="st5" points="264.7,500.5 250.9,500.5 250.9,493.4 287.9,493.4 287.9,500.5 274,500.5 274,548.5 264.7,548.5 	"/>
	<path class="st5" d="M295.3,493.4H312c10.4,0,17.7,3.6,17.7,14.4c0,8.7-5.2,11.4-10.9,12.8v0.2c7.7,1.7,8.5,6.4,9.8,12.2l3.3,15.5
		h-9.5l-2.6-11.9c-1.9-8.8-3-11.7-11.5-11.7h-3.7v23.6h-9.3V493.4z M304.7,518.2h3.7c5.8,0,11.9-1.2,11.9-9.3c0-5.7-2.9-8.9-8.2-8.9
		h-7.3V518.2z"/>
	<path class="st5" d="M354.6,493.4h11.2l18.8,55.1h-9.7l-4.8-14.9h-19.8l-4.8,14.9h-9.7L354.6,493.4z M352.5,526.5h15.3l-7.6-24.2
		h-0.1L352.5,526.5z"/>
	<path class="st5" d="M392.3,493.4h13.6c17.6,0,24.2,7.6,24.2,27.4c0,25.5-12.8,27.7-24.2,27.7h-13.6V493.4z M401.6,541.9h4.3
		c9.4,0,13.9-4.1,13.9-21.1c0-13.4-2.3-20.8-13.9-20.8h-4.3V541.9z"/>
	<polygon class="st5" points="439.3,493.4 471.5,493.4 471.5,500.5 448.7,500.5 448.7,516.4 470.3,516.4 470.3,523.5 448.7,523.5 
		448.7,541.4 472.1,541.4 472.1,548.5 439.3,548.5 	"/>
</g>
<g>
	<path class="st6" d="M579.7,104.1c0,13.8-11.1,24.9-24.9,24.9c-13.8,0-24.9-11.1-24.9-24.9c0-13.8,11.1-24.9,24.9-24.9
		C568.6,79.1,579.7,90.3,579.7,104.1z"/>
</g>
<g>
	<path d="M543,88h15.5c8.2,0,9.7,6,9.7,8.6c0,3.4-1.7,6.3-4.7,7.3c2.5,1.1,3.8,2,3.8,7.7c0,4.5,0,5.6,1.4,6.1v0.8h-7.1
		c-0.4-1.4-0.7-3-0.7-6.2c0-4.2-0.2-5.8-5-5.8h-6.6v12H543V88z M556.7,101.5c3.3,0,4.9-1.1,4.9-4.2c0-1.6-0.7-4-4.5-4h-8v8.2H556.7z
		"/>
</g>
</svg>
